<?xml version="1.0" standalone="no"?>
<!DOCTYPE svg PUBLIC "-//W3C//DTD SVG 20010904//EN"
 "http://www.w3.org/TR/2001/REC-SVG-20010904/DTD/svg10.dtd">
<svg version="1.0" xmlns="http://www.w3.org/2000/svg"
 width="512.000000pt" height="512.000000pt" viewBox="0 0 512.000000 512.000000"
 preserveAspectRatio="xMidYMid meet">
<metadata>
Created by potrace 1.14, written by Peter Selinger 2001-2017
</metadata>
<g transform="translate(0.000000,512.000000) scale(0.100000,-0.100000)"
fill="#000000" stroke="none">
<path d="M3125 4689 c-70 -5 -142 -32 -180 -66 -33 -29 -75 -89 -68 -96 3 -4
1 -7 -4 -7 -20 0 -37 -146 -21 -180 12 -27 21 -55 20 -62 -1 -3 19 -29 43 -56
42 -47 88 -76 138 -89 12 -3 214 -6 449 -7 235 -1 430 -5 434 -8 4 -4 14 -4
23 1 9 4 48 7 86 6 55 -1 69 -5 67 -16 -2 -8 -8 -15 -13 -17 -5 -2 -9 -10 -9
-18 0 -8 -9 -22 -20 -31 -11 -10 -20 -23 -20 -30 0 -7 -4 -13 -10 -13 -5 0
-10 -4 -10 -9 0 -6 -15 -31 -32 -57 -18 -25 -37 -53 -43 -62 -38 -59 -379
-570 -388 -582 -7 -8 -18 -28 -26 -42 -8 -15 -22 -36 -32 -47 -10 -10 -15 -22
-12 -25 4 -3 1 -6 -5 -6 -6 0 -14 -9 -17 -20 -3 -11 -12 -26 -18 -32 -7 -7
-45 -62 -85 -123 -39 -60 -75 -114 -79 -120 -29 -38 -113 -169 -113 -176 0 -5
-4 -9 -10 -9 -5 0 -10 -7 -10 -15 0 -9 -7 -18 -15 -21 -8 -4 -15 -12 -15 -19
0 -8 -6 -20 -13 -27 -7 -7 -27 -35 -44 -63 -18 -27 -36 -55 -41 -61 -5 -5 -15
-21 -22 -35 -7 -13 -16 -26 -19 -29 -11 -9 -56 -75 -70 -102 -8 -16 -18 -28
-23 -28 -5 0 -6 -4 -3 -10 3 -5 1 -10 -6 -10 -7 0 -10 -3 -6 -6 3 -4 -1 -21
-10 -38 -9 -17 -19 -38 -21 -46 -10 -40 -1 -146 16 -190 12 -30 74 -100 89
-100 6 0 16 -6 22 -14 7 -8 21 -12 31 -9 11 3 20 1 20 -4 0 -5 17 -10 38 -12
20 -1 52 -3 70 -5 17 -1 32 3 32 8 0 7 3 8 8 1 4 -5 39 -10 77 -10 39 0 73 5
77 10 5 7 8 7 8 0 0 -6 45 -10 115 -10 70 0 115 4 115 10 0 7 3 7 8 0 4 -6 55
-10 117 -10 62 0 113 4 117 10 5 7 8 7 8 0 0 -11 824 -12 915 0 30 3 61 12 68
18 6 7 25 19 40 27 25 12 44 32 99 101 7 9 15 22 16 30 2 8 6 23 9 34 11 41 9
112 -5 159 -19 69 -40 100 -97 143 -18 14 -61 34 -80 38 -11 2 -20 4 -20 6 0
1 -237 3 -528 4 -290 1 -530 5 -534 9 -4 4 -3 10 3 14 8 5 237 345 319 474 6
8 43 64 84 124 41 60 74 111 72 113 -1 2 1 7 7 10 13 9 152 219 152 230 0 5 4
11 8 13 10 4 134 185 144 211 4 9 12 17 18 17 5 0 10 8 10 18 0 10 9 24 19 32
11 7 18 17 16 20 -2 4 3 16 13 26 9 10 42 57 72 104 30 47 57 87 60 90 5 5
135 200 155 232 5 9 25 37 43 63 17 25 32 52 32 59 0 8 7 19 15 26 8 7 15 21
15 31 0 10 4 20 8 23 5 3 8 38 6 78 -3 100 -40 178 -104 219 -63 40 -91 41
-896 42 -429 1 -810 -1 -849 -4z"/>
<path d="M1500 2827 c-50 -25 -72 -60 -72 -115 0 -57 3 -71 22 -98 15 -21 72
-55 87 -53 4 1 140 1 301 0 l294 -1 -38 -52 c-21 -29 -47 -61 -57 -70 -10 -9
-18 -20 -18 -25 1 -4 -10 -20 -24 -35 -14 -14 -25 -29 -25 -32 0 -5 -75 -108
-103 -141 -10 -12 -142 -190 -165 -224 -9 -13 -25 -32 -34 -43 -10 -10 -16
-18 -13 -18 3 0 -3 -9 -12 -19 -33 -36 -43 -50 -43 -60 0 -5 -4 -11 -8 -13 -5
-1 -36 -41 -70 -88 -34 -47 -67 -91 -73 -98 -5 -7 -11 -21 -12 -32 -1 -11 -4
-20 -8 -20 -4 0 -6 -15 -5 -32 2 -18 4 -44 5 -58 1 -15 15 -35 34 -50 l31 -25
475 -1 c538 -1 532 -2 571 71 34 64 16 155 -39 192 -23 16 -58 18 -335 20
-169 1 -310 3 -311 5 -2 2 7 17 21 33 57 70 144 185 144 190 0 3 13 20 30 38
16 18 30 35 30 39 0 4 6 13 13 20 7 7 55 69 107 138 51 69 100 133 109 142 30
32 42 48 36 48 -4 0 0 7 7 15 7 8 22 26 33 41 11 14 25 31 31 37 34 38 107
146 124 185 24 55 21 134 -8 165 -25 29 -74 48 -89 35 -7 -6 -13 -6 -13 -2 0
5 -197 9 -447 9 -409 0 -451 -2 -483 -18z"/>
<path d="M223 1834 c-95 -40 -106 -201 -16 -249 24 -13 59 -19 121 -21 48 -1
89 -3 92 -4 3 -1 10 -1 15 0 31 9 412 4 407 -5 -3 -5 -30 -44 -61 -85 -137
-186 -197 -265 -203 -268 -5 -2 -8 -9 -8 -16 0 -7 -11 -23 -25 -36 -14 -13
-25 -30 -25 -37 0 -8 -4 -12 -9 -9 -4 3 -13 -5 -19 -19 -6 -13 -18 -32 -26
-42 -9 -10 -72 -94 -141 -188 -69 -93 -134 -180 -144 -192 -11 -13 -17 -23
-14 -23 3 0 0 -7 -7 -15 -7 -8 -9 -15 -5 -15 4 0 3 -6 -3 -12 -14 -18 -7 -94
13 -124 9 -14 28 -30 43 -35 35 -14 947 -15 982 -1 62 24 89 71 86 146 -4 73
-35 110 -104 123 -52 9 -182 8 -182 -2 0 -7 -3 -7 -8 0 -4 6 -55 10 -117 10
-62 0 -113 -4 -117 -10 -5 -7 -8 -7 -8 0 0 6 -34 9 -85 8 -81 -2 -84 -1 -72
18 6 10 15 19 19 19 5 0 8 5 8 11 0 6 6 16 12 23 7 7 22 25 33 40 11 16 31 43
45 60 14 18 34 45 45 60 19 27 30 41 68 89 55 70 180 236 195 257 9 14 22 31
29 38 7 7 13 18 13 23 0 6 5 7 10 4 6 -3 10 -1 10 5 0 15 112 160 123 160 4 0
6 4 2 9 -3 6 3 18 14 28 38 36 69 115 67 168 -3 59 -20 90 -61 109 -43 20
-944 20 -992 0z"/>
</g>
</svg>
